# xmcd
#
# Track frame offsets:
#	150
#	30385
#	61264
#	98417
#	126537
#	161207
#	197280
#	229022
#	253442
#	281165
#
# Disc length: 4194 seconds
#
# Revision: 0
# Processed by: cddbd v1.5.2PL0 Copyright (c) Steve Scherf et al.
# Submitted via: EasyCDDAExtractor 2010.6.0.0
#
DISCID=8910600a
DTITLE=Various Artist - Prelude's Greatest Hits Vol. 1
DYEAR=1995
DGENRE=Dance
TTITLE0=D-Train - Keep On (Extended)
TTITLE1=Unlimited Touch - I Hear Music In The Streets (Extended)
TTITLE2=Gayle Adams - Your Love Is A Life Saver (Extended)
TTITLE3=Sharon Redd - Beat The Street (Extended)
TTITLE4=Musique - In The Bush (Extended)
TTITLE5=Rod - Shake It Up (Do The Boogaloo) (Extended)
TTITLE6=Sharon Redd - In The Name Of Love (Extended)
TTITLE7=Hi-Gloss - You´ll Never Know (Extended)
TTITLE8=D-Train - Walk On By (Extended)
TTITLE9=Inner Life - I´m Caught Up (In A One Night Love Affair) (Extended)
EXTD=
EXTT0=
EXTT1=
EXTT2=
EXTT3=
EXTT4=
EXTT5=
EXTT6=
EXTT7=
EXTT8=
EXTT9=
PLAYORDER=
